<mxfile host="app.diagrams.net" agent="Mozilla/5.0 (Windows NT 10.0; Win64; x64) AppleWebKit/537.36 (KHTML, like Gecko) Chrome/137.0.0.0 Safari/537.36 Edg/137.0.0.0" version="27.1.4">
  <diagram id="C5RBs43oDa-KdzZeNtuy" name="Page-1">
    <mxGraphModel dx="2776" dy="925" grid="1" gridSize="10" guides="1" tooltips="1" connect="1" arrows="1" fold="1" page="1" pageScale="1" pageWidth="827" pageHeight="1169" math="0" shadow="0">
      <root>
        <mxCell id="WIyWlLk6GJQsqaUBKTNV-0" />
        <mxCell id="WIyWlLk6GJQsqaUBKTNV-1" parent="WIyWlLk6GJQsqaUBKTNV-0" />
        <mxCell id="zriCwS3uAFaA8U-9Uzes-4" value="Project" style="swimlane;fontStyle=1;align=center;verticalAlign=top;childLayout=stackLayout;horizontal=1;startSize=26;horizontalStack=0;resizeParent=1;resizeParentMax=0;resizeLast=0;collapsible=1;marginBottom=0;whiteSpace=wrap;html=1;" parent="WIyWlLk6GJQsqaUBKTNV-1" vertex="1">
          <mxGeometry x="-470" y="10" width="160" height="286" as="geometry" />
        </mxCell>
        <mxCell id="zriCwS3uAFaA8U-9Uzes-5" value="-id: long&lt;div&gt;-name: String&lt;/div&gt;&lt;div&gt;-description: String&lt;/div&gt;&lt;div&gt;-ownerId: long&lt;/div&gt;&lt;div&gt;-startDate: LocalDate&lt;/div&gt;&lt;div&gt;-endTime: LocalDate&lt;/div&gt;&lt;div&gt;-status: Enum&lt;/div&gt;&lt;div&gt;&lt;br&gt;&lt;/div&gt;" style="text;strokeColor=none;fillColor=none;align=left;verticalAlign=top;spacingLeft=4;spacingRight=4;overflow=hidden;rotatable=0;points=[[0,0.5],[1,0.5]];portConstraint=eastwest;whiteSpace=wrap;html=1;" parent="zriCwS3uAFaA8U-9Uzes-4" vertex="1">
          <mxGeometry y="26" width="160" height="150" as="geometry" />
        </mxCell>
        <mxCell id="zriCwS3uAFaA8U-9Uzes-6" value="" style="line;strokeWidth=1;fillColor=none;align=left;verticalAlign=middle;spacingTop=-1;spacingLeft=3;spacingRight=3;rotatable=0;labelPosition=right;points=[];portConstraint=eastwest;strokeColor=inherit;" parent="zriCwS3uAFaA8U-9Uzes-4" vertex="1">
          <mxGeometry y="176" width="160" height="8" as="geometry" />
        </mxCell>
        <mxCell id="zriCwS3uAFaA8U-9Uzes-7" value="+addTask(task)&lt;div&gt;+remove(task)&lt;/div&gt;&lt;div&gt;+addMemberr(user)&lt;/div&gt;&lt;div&gt;+removeMember(user)&lt;/div&gt;&lt;div&gt;+updateStatus(status)&lt;/div&gt;&lt;div&gt;+getProgress()&lt;/div&gt;" style="text;strokeColor=none;fillColor=none;align=left;verticalAlign=top;spacingLeft=4;spacingRight=4;overflow=hidden;rotatable=0;points=[[0,0.5],[1,0.5]];portConstraint=eastwest;whiteSpace=wrap;html=1;" parent="zriCwS3uAFaA8U-9Uzes-4" vertex="1">
          <mxGeometry y="184" width="160" height="102" as="geometry" />
        </mxCell>
        <mxCell id="zriCwS3uAFaA8U-9Uzes-8" value="Task" style="swimlane;fontStyle=1;align=center;verticalAlign=top;childLayout=stackLayout;horizontal=1;startSize=26;horizontalStack=0;resizeParent=1;resizeParentMax=0;resizeLast=0;collapsible=1;marginBottom=0;whiteSpace=wrap;html=1;" parent="WIyWlLk6GJQsqaUBKTNV-1" vertex="1">
          <mxGeometry x="60" y="23" width="160" height="280" as="geometry" />
        </mxCell>
        <mxCell id="zriCwS3uAFaA8U-9Uzes-9" value="-id: long&lt;div&gt;-projectId: long&lt;/div&gt;&lt;div&gt;-assignedUserId: long&lt;br&gt;&lt;div&gt;-title: String&lt;/div&gt;&lt;div&gt;-description: String&lt;/div&gt;&lt;div&gt;&lt;span style=&quot;background-color: transparent; color: light-dark(rgb(0, 0, 0), rgb(255, 255, 255));&quot;&gt;-priority: Enum&lt;/span&gt;&lt;/div&gt;&lt;div&gt;-status: Enum&lt;/div&gt;&lt;div&gt;-dueDate:&amp;nbsp;&lt;span style=&quot;background-color: transparent; color: light-dark(rgb(0, 0, 0), rgb(255, 255, 255));&quot;&gt;LocalDate&lt;/span&gt;&lt;/div&gt;&lt;div&gt;-createdDate:&amp;nbsp;&lt;span style=&quot;background-color: transparent; color: light-dark(rgb(0, 0, 0), rgb(255, 255, 255));&quot;&gt;LocalDate&lt;/span&gt;&lt;/div&gt;&lt;div&gt;-updateDate:&amp;nbsp;&lt;span style=&quot;background-color: transparent; color: light-dark(rgb(0, 0, 0), rgb(255, 255, 255));&quot;&gt;LocalDate&lt;/span&gt;&lt;/div&gt;&lt;div&gt;&lt;br&gt;&lt;/div&gt;&lt;/div&gt;" style="text;strokeColor=none;fillColor=none;align=left;verticalAlign=top;spacingLeft=4;spacingRight=4;overflow=hidden;rotatable=0;points=[[0,0.5],[1,0.5]];portConstraint=eastwest;whiteSpace=wrap;html=1;" parent="zriCwS3uAFaA8U-9Uzes-8" vertex="1">
          <mxGeometry y="26" width="160" height="134" as="geometry" />
        </mxCell>
        <mxCell id="zriCwS3uAFaA8U-9Uzes-10" value="" style="line;strokeWidth=1;fillColor=none;align=left;verticalAlign=middle;spacingTop=-1;spacingLeft=3;spacingRight=3;rotatable=0;labelPosition=right;points=[];portConstraint=eastwest;strokeColor=inherit;" parent="zriCwS3uAFaA8U-9Uzes-8" vertex="1">
          <mxGeometry y="160" width="160" height="24" as="geometry" />
        </mxCell>
        <mxCell id="zriCwS3uAFaA8U-9Uzes-16" value="+assignTo(user)&lt;div&gt;+updateStatus(status)&lt;/div&gt;&lt;div&gt;+addSubtask(task)&lt;/div&gt;&lt;div&gt;+removeSubtask(task)&lt;/div&gt;&lt;div&gt;+isOverdue()&lt;/div&gt;&lt;div&gt;+getProgress()&lt;/div&gt;" style="text;strokeColor=none;fillColor=none;align=left;verticalAlign=top;spacingLeft=4;spacingRight=4;overflow=hidden;rotatable=0;points=[[0,0.5],[1,0.5]];portConstraint=eastwest;whiteSpace=wrap;html=1;" parent="zriCwS3uAFaA8U-9Uzes-8" vertex="1">
          <mxGeometry y="184" width="160" height="96" as="geometry" />
        </mxCell>
        <mxCell id="zriCwS3uAFaA8U-9Uzes-13" value="&lt;span style=&quot;color: rgba(0, 0, 0, 0); font-family: monospace; font-size: 0px; text-align: start;&quot;&gt;%3CmxGraphModel%3E%3Croot%3E%3CmxCell%20id%3D%220%22%2F%3E%3CmxCell%20id%3D%221%22%20parent%3D%220%22%2F%3E%3CmxCell%20id%3D%222%22%20value%3D%22%2B%20assignTo(user)%26lt%3Bdiv%26gt%3B%2BupdateStatus(status)%26lt%3B%2Fdiv%26gt%3B%26lt%3Bdiv%26gt%3B%2BaddSubtask(task)%26lt%3B%2Fdiv%26gt%3B%26lt%3Bdiv%26gt%3B%2BremoveSubtask(task)%26lt%3B%2Fdiv%26gt%3B%26lt%3Bdiv%26gt%3B%2BisOverdue()%26lt%3B%2Fdiv%26gt%3B%26lt%3Bdiv%26gt%3B%2BgetProgress()%26lt%3B%2Fdiv%26gt%3B%22%20style%3D%22text%3BstrokeColor%3Dnone%3BfillColor%3Dnone%3Balign%3Dleft%3BverticalAlign%3Dtop%3BspacingLeft%3D4%3BspacingRight%3D4%3Boverflow%3Dhidden%3Brotatable%3D0%3Bpoints%3D%5B%5B0%2C0.5%5D%2C%5B1%2C0.5%5D%5D%3BportConstraint%3Deastwest%3BwhiteSpace%3Dwrap%3Bhtml%3D1%3B%22%20vertex%3D%221%22%20parent%3D%221%22%3E%3CmxGeometry%20x%3D%22-50%22%20y%3D%22594%22%20width%3D%22160%22%20height%3D%2284%22%20as%3D%22geometry%22%2F%3E%3C%2FmxCell%3E%3C%2Froot%3E%3C%2FmxGraphModel%3E&lt;/span&gt;" style="text;html=1;align=center;verticalAlign=middle;resizable=0;points=[];autosize=1;strokeColor=none;fillColor=none;" parent="WIyWlLk6GJQsqaUBKTNV-1" vertex="1">
          <mxGeometry x="-20" y="548" width="20" height="30" as="geometry" />
        </mxCell>
        <mxCell id="zriCwS3uAFaA8U-9Uzes-18" value="User" style="swimlane;fontStyle=1;align=center;verticalAlign=top;childLayout=stackLayout;horizontal=1;startSize=26;horizontalStack=0;resizeParent=1;resizeParentMax=0;resizeLast=0;collapsible=1;marginBottom=0;whiteSpace=wrap;html=1;" parent="WIyWlLk6GJQsqaUBKTNV-1" vertex="1">
          <mxGeometry x="-480" y="335" width="180" height="180" as="geometry" />
        </mxCell>
        <mxCell id="zriCwS3uAFaA8U-9Uzes-19" value="-id: long&lt;div&gt;&lt;span style=&quot;background-color: transparent; color: light-dark(rgb(0, 0, 0), rgb(255, 255, 255));&quot;&gt;-name: String&lt;/span&gt;&lt;div&gt;-email: String&lt;/div&gt;&lt;div&gt;-passsword: String&lt;/div&gt;&lt;/div&gt;" style="text;strokeColor=none;fillColor=none;align=left;verticalAlign=top;spacingLeft=4;spacingRight=4;overflow=hidden;rotatable=0;points=[[0,0.5],[1,0.5]];portConstraint=eastwest;whiteSpace=wrap;html=1;" parent="zriCwS3uAFaA8U-9Uzes-18" vertex="1">
          <mxGeometry y="26" width="180" height="74" as="geometry" />
        </mxCell>
        <mxCell id="zriCwS3uAFaA8U-9Uzes-20" value="" style="line;strokeWidth=1;fillColor=none;align=left;verticalAlign=middle;spacingTop=-1;spacingLeft=3;spacingRight=3;rotatable=0;labelPosition=right;points=[];portConstraint=eastwest;strokeColor=inherit;" parent="zriCwS3uAFaA8U-9Uzes-18" vertex="1">
          <mxGeometry y="100" width="180" height="8" as="geometry" />
        </mxCell>
        <mxCell id="zriCwS3uAFaA8U-9Uzes-21" value="+joinProject(project)&lt;div&gt;+leaveProject(project)&lt;/div&gt;&lt;div&gt;&lt;span style=&quot;background-color: transparent; color: light-dark(rgb(0, 0, 0), rgb(255, 255, 255));&quot;&gt;+assignTask(task)&lt;/span&gt;&lt;/div&gt;&lt;div&gt;+markTaskAsDone(task)&lt;/div&gt;" style="text;strokeColor=none;fillColor=none;align=left;verticalAlign=top;spacingLeft=4;spacingRight=4;overflow=hidden;rotatable=0;points=[[0,0.5],[1,0.5]];portConstraint=eastwest;whiteSpace=wrap;html=1;" parent="zriCwS3uAFaA8U-9Uzes-18" vertex="1">
          <mxGeometry y="108" width="180" height="72" as="geometry" />
        </mxCell>
        <mxCell id="zriCwS3uAFaA8U-9Uzes-22" value="Comment" style="swimlane;fontStyle=1;align=center;verticalAlign=top;childLayout=stackLayout;horizontal=1;startSize=26;horizontalStack=0;resizeParent=1;resizeParentMax=0;resizeLast=0;collapsible=1;marginBottom=0;whiteSpace=wrap;html=1;" parent="WIyWlLk6GJQsqaUBKTNV-1" vertex="1">
          <mxGeometry x="370" y="6" width="160" height="160" as="geometry" />
        </mxCell>
        <mxCell id="zriCwS3uAFaA8U-9Uzes-23" value="-id: long&lt;div&gt;-taskId: long&lt;br&gt;&lt;div&gt;-author: User&lt;/div&gt;&lt;div&gt;-content: String&lt;/div&gt;&lt;div&gt;-timestamp:&amp;nbsp;&lt;span style=&quot;background-color: transparent; color: light-dark(rgb(0, 0, 0), rgb(255, 255, 255));&quot;&gt;LocalDateTime&lt;/span&gt;&lt;/div&gt;&lt;div&gt;&lt;br&gt;&lt;/div&gt;&lt;/div&gt;" style="text;strokeColor=none;fillColor=none;align=left;verticalAlign=top;spacingLeft=4;spacingRight=4;overflow=hidden;rotatable=0;points=[[0,0.5],[1,0.5]];portConstraint=eastwest;whiteSpace=wrap;html=1;" parent="zriCwS3uAFaA8U-9Uzes-22" vertex="1">
          <mxGeometry y="26" width="160" height="84" as="geometry" />
        </mxCell>
        <mxCell id="zriCwS3uAFaA8U-9Uzes-24" value="" style="line;strokeWidth=1;fillColor=none;align=left;verticalAlign=middle;spacingTop=-1;spacingLeft=3;spacingRight=3;rotatable=0;labelPosition=right;points=[];portConstraint=eastwest;strokeColor=inherit;" parent="zriCwS3uAFaA8U-9Uzes-22" vertex="1">
          <mxGeometry y="110" width="160" height="8" as="geometry" />
        </mxCell>
        <mxCell id="zriCwS3uAFaA8U-9Uzes-25" value="-addComment()&lt;div&gt;-deleteComment()&lt;/div&gt;" style="text;strokeColor=none;fillColor=none;align=left;verticalAlign=top;spacingLeft=4;spacingRight=4;overflow=hidden;rotatable=0;points=[[0,0.5],[1,0.5]];portConstraint=eastwest;whiteSpace=wrap;html=1;" parent="zriCwS3uAFaA8U-9Uzes-22" vertex="1">
          <mxGeometry y="118" width="160" height="42" as="geometry" />
        </mxCell>
        <mxCell id="zriCwS3uAFaA8U-9Uzes-32" value="FileAttachment" style="swimlane;fontStyle=1;align=center;verticalAlign=top;childLayout=stackLayout;horizontal=1;startSize=26;horizontalStack=0;resizeParent=1;resizeParentMax=0;resizeLast=0;collapsible=1;marginBottom=0;whiteSpace=wrap;html=1;" parent="WIyWlLk6GJQsqaUBKTNV-1" vertex="1">
          <mxGeometry x="350" y="258" width="180" height="170" as="geometry" />
        </mxCell>
        <mxCell id="zriCwS3uAFaA8U-9Uzes-33" value="-id: long&lt;div&gt;-taskId: long&lt;br&gt;&lt;div&gt;&lt;span style=&quot;background-color: transparent; color: light-dark(rgb(0, 0, 0), rgb(255, 255, 255));&quot;&gt;-fileName: String&lt;/span&gt;&lt;/div&gt;&lt;div&gt;&lt;span style=&quot;background-color: transparent; color: light-dark(rgb(0, 0, 0), rgb(255, 255, 255));&quot;&gt;-uploadBy: User&lt;/span&gt;&lt;/div&gt;&lt;div&gt;-url: String&lt;/div&gt;&lt;div&gt;-uploadedDate:&amp;nbsp;&lt;span style=&quot;background-color: transparent; color: light-dark(rgb(0, 0, 0), rgb(255, 255, 255));&quot;&gt;LocalDateTime&lt;/span&gt;&lt;/div&gt;&lt;div&gt;&lt;br&gt;&lt;/div&gt;&lt;/div&gt;" style="text;strokeColor=none;fillColor=none;align=left;verticalAlign=top;spacingLeft=4;spacingRight=4;overflow=hidden;rotatable=0;points=[[0,0.5],[1,0.5]];portConstraint=eastwest;whiteSpace=wrap;html=1;" parent="zriCwS3uAFaA8U-9Uzes-32" vertex="1">
          <mxGeometry y="26" width="180" height="104" as="geometry" />
        </mxCell>
        <mxCell id="zriCwS3uAFaA8U-9Uzes-34" value="" style="line;strokeWidth=1;fillColor=none;align=left;verticalAlign=middle;spacingTop=-1;spacingLeft=3;spacingRight=3;rotatable=0;labelPosition=right;points=[];portConstraint=eastwest;strokeColor=inherit;" parent="zriCwS3uAFaA8U-9Uzes-32" vertex="1">
          <mxGeometry y="130" width="180" height="8" as="geometry" />
        </mxCell>
        <mxCell id="zriCwS3uAFaA8U-9Uzes-35" value="+deleteFile()" style="text;strokeColor=none;fillColor=none;align=left;verticalAlign=top;spacingLeft=4;spacingRight=4;overflow=hidden;rotatable=0;points=[[0,0.5],[1,0.5]];portConstraint=eastwest;whiteSpace=wrap;html=1;" parent="zriCwS3uAFaA8U-9Uzes-32" vertex="1">
          <mxGeometry y="138" width="180" height="32" as="geometry" />
        </mxCell>
        <mxCell id="zriCwS3uAFaA8U-9Uzes-28" value="Notification" style="swimlane;fontStyle=1;align=center;verticalAlign=top;childLayout=stackLayout;horizontal=1;startSize=26;horizontalStack=0;resizeParent=1;resizeParentMax=0;resizeLast=0;collapsible=1;marginBottom=0;whiteSpace=wrap;html=1;" parent="WIyWlLk6GJQsqaUBKTNV-1" vertex="1">
          <mxGeometry x="-770" y="320" width="190" height="160" as="geometry" />
        </mxCell>
        <mxCell id="zriCwS3uAFaA8U-9Uzes-29" value="-id: long&lt;br&gt;-title: String&lt;br&gt;&lt;div&gt;&lt;span style=&quot;background-color: transparent; color: light-dark(rgb(0, 0, 0), rgb(255, 255, 255));&quot;&gt;-recipientId: long&lt;/span&gt;&lt;/div&gt;&lt;div&gt;-message: String&lt;/div&gt;&lt;div&gt;-isRead: Boolean&lt;/div&gt;&lt;div&gt;-createdDate:&amp;nbsp;&lt;span style=&quot;background-color: transparent; color: light-dark(rgb(0, 0, 0), rgb(255, 255, 255));&quot;&gt;LocalDateTime&lt;/span&gt;&lt;/div&gt;&lt;div&gt;&lt;br&gt;&lt;/div&gt;" style="text;strokeColor=none;fillColor=none;align=left;verticalAlign=top;spacingLeft=4;spacingRight=4;overflow=hidden;rotatable=0;points=[[0,0.5],[1,0.5]];portConstraint=eastwest;whiteSpace=wrap;html=1;" parent="zriCwS3uAFaA8U-9Uzes-28" vertex="1">
          <mxGeometry y="26" width="190" height="104" as="geometry" />
        </mxCell>
        <mxCell id="zriCwS3uAFaA8U-9Uzes-30" value="" style="line;strokeWidth=1;fillColor=none;align=left;verticalAlign=middle;spacingTop=-1;spacingLeft=3;spacingRight=3;rotatable=0;labelPosition=right;points=[];portConstraint=eastwest;strokeColor=inherit;" parent="zriCwS3uAFaA8U-9Uzes-28" vertex="1">
          <mxGeometry y="130" width="190" height="8" as="geometry" />
        </mxCell>
        <mxCell id="zriCwS3uAFaA8U-9Uzes-31" value="+markAsRead()" style="text;strokeColor=none;fillColor=none;align=left;verticalAlign=top;spacingLeft=4;spacingRight=4;overflow=hidden;rotatable=0;points=[[0,0.5],[1,0.5]];portConstraint=eastwest;whiteSpace=wrap;html=1;" parent="zriCwS3uAFaA8U-9Uzes-28" vertex="1">
          <mxGeometry y="138" width="190" height="22" as="geometry" />
        </mxCell>
        <mxCell id="zriCwS3uAFaA8U-9Uzes-49" value="N" style="text;strokeColor=none;align=center;fillColor=none;html=1;verticalAlign=middle;whiteSpace=wrap;rounded=0;" parent="WIyWlLk6GJQsqaUBKTNV-1" vertex="1">
          <mxGeometry x="-325" y="368" width="70" height="30" as="geometry" />
        </mxCell>
        <mxCell id="zriCwS3uAFaA8U-9Uzes-50" value="N" style="text;strokeColor=none;align=center;fillColor=none;html=1;verticalAlign=middle;whiteSpace=wrap;rounded=0;" parent="WIyWlLk6GJQsqaUBKTNV-1" vertex="1">
          <mxGeometry y="50" width="60" height="30" as="geometry" />
        </mxCell>
        <mxCell id="zriCwS3uAFaA8U-9Uzes-52" value="1" style="text;strokeColor=none;align=center;fillColor=none;html=1;verticalAlign=middle;whiteSpace=wrap;rounded=0;" parent="WIyWlLk6GJQsqaUBKTNV-1" vertex="1">
          <mxGeometry x="-325" y="50" width="60" height="30" as="geometry" />
        </mxCell>
        <mxCell id="zriCwS3uAFaA8U-9Uzes-53" value="1" style="text;strokeColor=none;align=center;fillColor=none;html=1;verticalAlign=middle;whiteSpace=wrap;rounded=0;" parent="WIyWlLk6GJQsqaUBKTNV-1" vertex="1">
          <mxGeometry x="-320" y="420" width="60" height="30" as="geometry" />
        </mxCell>
        <mxCell id="zriCwS3uAFaA8U-9Uzes-60" value="1" style="text;strokeColor=none;align=center;fillColor=none;html=1;verticalAlign=middle;whiteSpace=wrap;rounded=0;" parent="WIyWlLk6GJQsqaUBKTNV-1" vertex="1">
          <mxGeometry x="-530" y="368" width="60" height="30" as="geometry" />
        </mxCell>
        <mxCell id="zriCwS3uAFaA8U-9Uzes-62" value="N" style="text;strokeColor=none;align=center;fillColor=none;html=1;verticalAlign=middle;whiteSpace=wrap;rounded=0;" parent="WIyWlLk6GJQsqaUBKTNV-1" vertex="1">
          <mxGeometry x="-600" y="368" width="60" height="30" as="geometry" />
        </mxCell>
        <mxCell id="zriCwS3uAFaA8U-9Uzes-63" value="1" style="text;strokeColor=none;align=center;fillColor=none;html=1;verticalAlign=middle;whiteSpace=wrap;rounded=0;" parent="WIyWlLk6GJQsqaUBKTNV-1" vertex="1">
          <mxGeometry x="210" y="98" width="60" height="30" as="geometry" />
        </mxCell>
        <mxCell id="zriCwS3uAFaA8U-9Uzes-64" value="1" style="text;strokeColor=none;align=center;fillColor=none;html=1;verticalAlign=middle;whiteSpace=wrap;rounded=0;" parent="WIyWlLk6GJQsqaUBKTNV-1" vertex="1">
          <mxGeometry x="210" y="50" width="60" height="30" as="geometry" />
        </mxCell>
        <mxCell id="zriCwS3uAFaA8U-9Uzes-65" value="N" style="text;strokeColor=none;align=center;fillColor=none;html=1;verticalAlign=middle;whiteSpace=wrap;rounded=0;" parent="WIyWlLk6GJQsqaUBKTNV-1" vertex="1">
          <mxGeometry x="-590" y="50" width="60" height="30" as="geometry" />
        </mxCell>
        <mxCell id="zriCwS3uAFaA8U-9Uzes-66" value="N" style="text;strokeColor=none;align=center;fillColor=none;html=1;verticalAlign=middle;whiteSpace=wrap;rounded=0;" parent="WIyWlLk6GJQsqaUBKTNV-1" vertex="1">
          <mxGeometry x="310" y="335" width="60" height="30" as="geometry" />
        </mxCell>
        <mxCell id="zriCwS3uAFaA8U-9Uzes-67" value="N" style="text;strokeColor=none;align=center;fillColor=none;html=1;verticalAlign=middle;whiteSpace=wrap;rounded=0;" parent="WIyWlLk6GJQsqaUBKTNV-1" vertex="1">
          <mxGeometry x="-325" y="120" width="60" height="30" as="geometry" />
        </mxCell>
        <mxCell id="zriCwS3uAFaA8U-9Uzes-68" value="N" style="text;strokeColor=none;align=center;fillColor=none;html=1;verticalAlign=middle;whiteSpace=wrap;rounded=0;" parent="WIyWlLk6GJQsqaUBKTNV-1" vertex="1">
          <mxGeometry y="120" width="60" height="30" as="geometry" />
        </mxCell>
        <mxCell id="qzhDH7qxnKS3ORFJ7gpC-5" value="ProjectMember" style="swimlane;fontStyle=1;align=center;verticalAlign=top;childLayout=stackLayout;horizontal=1;startSize=26;horizontalStack=0;resizeParent=1;resizeParentMax=0;resizeLast=0;collapsible=1;marginBottom=0;whiteSpace=wrap;html=1;" parent="WIyWlLk6GJQsqaUBKTNV-1" vertex="1">
          <mxGeometry x="-230" y="188" width="180" height="108" as="geometry" />
        </mxCell>
        <mxCell id="qzhDH7qxnKS3ORFJ7gpC-6" value="-id: long&lt;div&gt;-projectId: long&lt;/div&gt;&lt;div&gt;-userId: long&lt;/div&gt;&lt;div&gt;-role: String&lt;/div&gt;" style="text;strokeColor=none;fillColor=none;align=left;verticalAlign=top;spacingLeft=4;spacingRight=4;overflow=hidden;rotatable=0;points=[[0,0.5],[1,0.5]];portConstraint=eastwest;whiteSpace=wrap;html=1;" parent="qzhDH7qxnKS3ORFJ7gpC-5" vertex="1">
          <mxGeometry y="26" width="180" height="74" as="geometry" />
        </mxCell>
        <mxCell id="qzhDH7qxnKS3ORFJ7gpC-7" value="" style="line;strokeWidth=1;fillColor=none;align=left;verticalAlign=middle;spacingTop=-1;spacingLeft=3;spacingRight=3;rotatable=0;labelPosition=right;points=[];portConstraint=eastwest;strokeColor=inherit;" parent="qzhDH7qxnKS3ORFJ7gpC-5" vertex="1">
          <mxGeometry y="100" width="180" height="8" as="geometry" />
        </mxCell>
        <mxCell id="qzhDH7qxnKS3ORFJ7gpC-11" value="1" style="text;strokeColor=none;align=center;fillColor=none;html=1;verticalAlign=middle;whiteSpace=wrap;rounded=0;" parent="WIyWlLk6GJQsqaUBKTNV-1" vertex="1">
          <mxGeometry x="-200" y="150" width="60" height="30" as="geometry" />
        </mxCell>
        <mxCell id="qzhDH7qxnKS3ORFJ7gpC-13" value="1" style="text;strokeColor=none;align=center;fillColor=none;html=1;verticalAlign=middle;whiteSpace=wrap;rounded=0;" parent="WIyWlLk6GJQsqaUBKTNV-1" vertex="1">
          <mxGeometry x="-190" y="300" width="60" height="30" as="geometry" />
        </mxCell>
        <mxCell id="qzhDH7qxnKS3ORFJ7gpC-18" value="Report" style="swimlane;fontStyle=1;align=center;verticalAlign=top;childLayout=stackLayout;horizontal=1;startSize=26;horizontalStack=0;resizeParent=1;resizeParentMax=0;resizeLast=0;collapsible=1;marginBottom=0;whiteSpace=wrap;html=1;" parent="WIyWlLk6GJQsqaUBKTNV-1" vertex="1">
          <mxGeometry x="-760" y="23" width="180" height="180" as="geometry" />
        </mxCell>
        <mxCell id="qzhDH7qxnKS3ORFJ7gpC-19" value="-id: long&lt;div&gt;-projectId: long&lt;br&gt;&lt;div&gt;&lt;span style=&quot;background-color: transparent; color: light-dark(rgb(0, 0, 0), rgb(255, 255, 255));&quot;&gt;-title: String&lt;/span&gt;&lt;/div&gt;&lt;div&gt;&lt;span style=&quot;background-color: transparent; color: light-dark(rgb(0, 0, 0), rgb(255, 255, 255));&quot;&gt;-type: Enum&lt;/span&gt;&lt;/div&gt;&lt;div&gt;-url: String&lt;/div&gt;&lt;div&gt;-createdDate:&amp;nbsp;&lt;span style=&quot;background-color: transparent; color: light-dark(rgb(0, 0, 0), rgb(255, 255, 255));&quot;&gt;LocalDateTime&lt;/span&gt;&lt;/div&gt;&lt;div&gt;&lt;br&gt;&lt;/div&gt;&lt;/div&gt;" style="text;strokeColor=none;fillColor=none;align=left;verticalAlign=top;spacingLeft=4;spacingRight=4;overflow=hidden;rotatable=0;points=[[0,0.5],[1,0.5]];portConstraint=eastwest;whiteSpace=wrap;html=1;" parent="qzhDH7qxnKS3ORFJ7gpC-18" vertex="1">
          <mxGeometry y="26" width="180" height="104" as="geometry" />
        </mxCell>
        <mxCell id="qzhDH7qxnKS3ORFJ7gpC-20" value="" style="line;strokeWidth=1;fillColor=none;align=left;verticalAlign=middle;spacingTop=-1;spacingLeft=3;spacingRight=3;rotatable=0;labelPosition=right;points=[];portConstraint=eastwest;strokeColor=inherit;" parent="qzhDH7qxnKS3ORFJ7gpC-18" vertex="1">
          <mxGeometry y="130" width="180" height="8" as="geometry" />
        </mxCell>
        <mxCell id="qzhDH7qxnKS3ORFJ7gpC-21" value="+exportReportToPDF()&lt;div&gt;&lt;span style=&quot;background-color: transparent; color: light-dark(rgb(0, 0, 0), rgb(255, 255, 255));&quot;&gt;+exportReportToExcel()&lt;/span&gt;&lt;/div&gt;" style="text;strokeColor=none;fillColor=none;align=left;verticalAlign=top;spacingLeft=4;spacingRight=4;overflow=hidden;rotatable=0;points=[[0,0.5],[1,0.5]];portConstraint=eastwest;whiteSpace=wrap;html=1;" parent="qzhDH7qxnKS3ORFJ7gpC-18" vertex="1">
          <mxGeometry y="138" width="180" height="42" as="geometry" />
        </mxCell>
        <mxCell id="qzhDH7qxnKS3ORFJ7gpC-29" value="1" style="text;strokeColor=none;align=center;fillColor=none;html=1;verticalAlign=middle;whiteSpace=wrap;rounded=0;" parent="WIyWlLk6GJQsqaUBKTNV-1" vertex="1">
          <mxGeometry x="-520" y="50" width="60" height="30" as="geometry" />
        </mxCell>
        <mxCell id="qzhDH7qxnKS3ORFJ7gpC-35" value="N" style="text;strokeColor=none;align=center;fillColor=none;html=1;verticalAlign=middle;whiteSpace=wrap;rounded=0;" parent="WIyWlLk6GJQsqaUBKTNV-1" vertex="1">
          <mxGeometry x="320" y="50" width="60" height="30" as="geometry" />
        </mxCell>
        <mxCell id="2Y6EK71iXzM2Wzvk6AMK-2" value="" style="endArrow=none;html=1;rounded=0;" edge="1" parent="WIyWlLk6GJQsqaUBKTNV-1" source="zriCwS3uAFaA8U-9Uzes-29" target="zriCwS3uAFaA8U-9Uzes-19">
          <mxGeometry width="50" height="50" relative="1" as="geometry">
            <mxPoint x="-20" y="430" as="sourcePoint" />
            <mxPoint x="30" y="380" as="targetPoint" />
          </mxGeometry>
        </mxCell>
        <mxCell id="2Y6EK71iXzM2Wzvk6AMK-7" value="" style="endArrow=none;html=1;rounded=0;entryX=0.022;entryY=0.294;entryDx=0;entryDy=0;entryPerimeter=0;" edge="1" parent="WIyWlLk6GJQsqaUBKTNV-1" target="zriCwS3uAFaA8U-9Uzes-5">
          <mxGeometry width="50" height="50" relative="1" as="geometry">
            <mxPoint x="-580" y="80" as="sourcePoint" />
            <mxPoint x="30" y="380" as="targetPoint" />
            <Array as="points">
              <mxPoint x="-520" y="80" />
            </Array>
          </mxGeometry>
        </mxCell>
        <mxCell id="2Y6EK71iXzM2Wzvk6AMK-8" value="" style="endArrow=none;html=1;rounded=0;entryX=1;entryY=1;entryDx=0;entryDy=0;exitX=1;exitY=0.294;exitDx=0;exitDy=0;exitPerimeter=0;" edge="1" parent="WIyWlLk6GJQsqaUBKTNV-1" source="zriCwS3uAFaA8U-9Uzes-5" target="zriCwS3uAFaA8U-9Uzes-50">
          <mxGeometry width="50" height="50" relative="1" as="geometry">
            <mxPoint x="-310" y="63.254716981132106" as="sourcePoint" />
            <mxPoint x="60" y="66.7452830188679" as="targetPoint" />
          </mxGeometry>
        </mxCell>
        <mxCell id="2Y6EK71iXzM2Wzvk6AMK-9" value="" style="endArrow=none;html=1;rounded=0;" edge="1" parent="WIyWlLk6GJQsqaUBKTNV-1">
          <mxGeometry width="50" height="50" relative="1" as="geometry">
            <mxPoint x="-310" y="120" as="sourcePoint" />
            <mxPoint x="-230" y="240" as="targetPoint" />
            <Array as="points">
              <mxPoint x="-260" y="120" />
              <mxPoint x="-260" y="240" />
            </Array>
          </mxGeometry>
        </mxCell>
        <mxCell id="2Y6EK71iXzM2Wzvk6AMK-10" value="" style="endArrow=none;html=1;rounded=0;entryX=0;entryY=0.5;entryDx=0;entryDy=0;" edge="1" parent="WIyWlLk6GJQsqaUBKTNV-1" source="zriCwS3uAFaA8U-9Uzes-19" target="qzhDH7qxnKS3ORFJ7gpC-6">
          <mxGeometry width="50" height="50" relative="1" as="geometry">
            <mxPoint x="-110" y="320" as="sourcePoint" />
            <mxPoint x="-60" y="270" as="targetPoint" />
            <Array as="points">
              <mxPoint x="-260" y="400" />
              <mxPoint x="-260" y="251" />
            </Array>
          </mxGeometry>
        </mxCell>
        <mxCell id="2Y6EK71iXzM2Wzvk6AMK-11" value="" style="endArrow=none;html=1;rounded=0;exitX=0.998;exitY=0.781;exitDx=0;exitDy=0;exitPerimeter=0;" edge="1" parent="WIyWlLk6GJQsqaUBKTNV-1" source="zriCwS3uAFaA8U-9Uzes-19" target="zriCwS3uAFaA8U-9Uzes-9">
          <mxGeometry width="50" height="50" relative="1" as="geometry">
            <mxPoint x="-280" y="370" as="sourcePoint" />
            <mxPoint x="-230" y="320" as="targetPoint" />
            <Array as="points">
              <mxPoint x="-30" y="420" />
              <mxPoint x="-30" y="116" />
            </Array>
          </mxGeometry>
        </mxCell>
        <mxCell id="2Y6EK71iXzM2Wzvk6AMK-12" value="" style="endArrow=none;html=1;rounded=0;exitX=1.002;exitY=0.232;exitDx=0;exitDy=0;exitPerimeter=0;" edge="1" parent="WIyWlLk6GJQsqaUBKTNV-1" source="zriCwS3uAFaA8U-9Uzes-9">
          <mxGeometry width="50" height="50" relative="1" as="geometry">
            <mxPoint x="410" y="220" as="sourcePoint" />
            <mxPoint x="370" y="80" as="targetPoint" />
          </mxGeometry>
        </mxCell>
        <mxCell id="2Y6EK71iXzM2Wzvk6AMK-13" value="" style="endArrow=none;html=1;rounded=0;entryX=-0.003;entryY=0.716;entryDx=0;entryDy=0;entryPerimeter=0;" edge="1" parent="WIyWlLk6GJQsqaUBKTNV-1" target="zriCwS3uAFaA8U-9Uzes-33">
          <mxGeometry width="50" height="50" relative="1" as="geometry">
            <mxPoint x="220" y="120" as="sourcePoint" />
            <mxPoint x="190" y="120" as="targetPoint" />
            <Array as="points">
              <mxPoint x="280" y="120" />
              <mxPoint x="280" y="358" />
            </Array>
          </mxGeometry>
        </mxCell>
      </root>
    </mxGraphModel>
  </diagram>
</mxfile>
